HIERARCHY
ROOT RightShoulder
{
	OFFSET -1.644901 -0.003980 3.801207
	CHANNELS 6 Xposition Yposition Zposition Xrotation Yrotation Zrotation
	JOINT RightElbow
	{
		OFFSET -2.454748 0.000000 0.000000
		CHANNELS 6 Xposition Yposition Zposition Xrotation Yrotation Zrotation
		JOINT RightWrist
		{
			OFFSET -2.035185 -0.001238 0.000000
			CHANNELS 6 Xposition Yposition Zposition Xrotation Yrotation Zrotation
			End Site
			{
				OFFSET -1.535909 0.000000 0.000000
			}
		}
	}
}
MOTION
Frames: 49
Frame Time: 0.041667
-1.644901 -0.003980 3.801207 17.075036 -79.075675 33.137646 -2.454748 0.000000 -0.000000 -42.943838 -7.315854 13.907677 -2.035185 -0.001238 -0.000000 -37.612120 0.950950 -2.599240 
-1.644901 -0.003980 3.801207 25.500023 -78.777244 44.867069 -2.454749 0.000000 0.000000 -41.111076 -13.482326 20.467664 -2.035186 -0.001238 0.000000 -40.973420 4.743638 2.712846 
-1.644901 -0.003980 3.801207 29.670738 -77.825846 51.063700 -2.454748 -0.000000 0.000000 -36.262342 -20.826973 28.804110 -2.035186 -0.001238 -0.000000 -50.484425 7.772678 9.788432 
-1.644901 -0.003980 3.801207 31.040546 -77.247834 53.976273 -2.454748 0.000000 0.000000 -29.254677 -29.988676 38.548710 -2.035185 -0.001238 0.000000 -56.527124 9.465473 17.695574 
-1.644901 -0.003980 3.801207 32.819588 -77.046180 57.190677 -2.454748 -0.000000 0.000000 -20.002470 -35.592956 50.499588 -2.035185 -0.001238 0.000000 -57.451761 10.159969 19.292911 
-1.644901 -0.003980 3.801207 37.059493 -76.157866 63.104753 -2.454749 -0.000000 0.000000 -10.970926 -37.306876 62.435893 -2.035186 -0.001238 0.000000 -54.606212 11.093689 19.917837 
-1.644901 -0.003980 3.801207 42.854591 -74.464730 70.731151 -2.454749 -0.000000 0.000001 -3.135112 -35.930449 72.645551 -2.035186 -0.001238 0.000000 -49.792526 12.486948 21.549249 
-1.644901 -0.003980 3.801207 50.345362 -72.102619 79.874561 -2.454748 -0.000000 0.000000 3.660093 -34.384931 80.645970 -2.035185 -0.001238 0.000000 -42.701544 14.080012 23.198881 
-1.644901 -0.003980 3.801207 52.239479 -69.107895 84.029420 -2.454748 0.000000 -0.000000 9.888947 -33.104752 85.950315 -2.035186 -0.001238 -0.000000 -34.130127 16.211447 23.774642 
-1.644901 -0.003980 3.801207 52.719471 -66.679742 86.738382 -2.454748 0.000000 0.000000 15.613604 -31.687560 89.188132 -2.035186 -0.001238 0.000000 -25.539477 17.211513 24.826553 
-1.644901 -0.003980 3.801207 52.858305 -64.994181 88.639729 -2.454748 -0.000000 0.000000 21.026341 -30.411820 92.323769 -2.035186 -0.001238 -0.000000 -16.616778 19.301075 25.892327 
-1.644901 -0.003980 3.801207 54.312315 -64.100226 90.426425 -2.454749 -0.000000 -0.000000 25.201146 -29.536822 94.093622 -2.035185 -0.001238 0.000000 -9.215477 19.551526 27.188034 
-1.644901 -0.003980 3.801207 52.757290 -63.120066 89.800780 -2.454749 -0.000000 0.000000 29.587041 -29.141774 95.476298 -2.035185 -0.001238 0.000000 -3.596670 20.756513 26.734781 
-1.644901 -0.003980 3.801207 52.289787 -61.730587 90.489413 -2.454748 -0.000000 0.000000 31.256189 -28.153154 95.371113 -2.035185 -0.001238 -0.000000 0.703556 19.947450 26.499141 
-1.644901 -0.003980 3.801207 53.106384 -60.805909 91.795987 -2.454748 -0.000000 0.000000 33.386969 -27.763636 94.575744 -2.035185 -0.001238 -0.000000 5.166767 20.923122 25.990591 
-1.644901 -0.003980 3.801207 54.855923 -62.299952 92.640403 -2.454749 -0.000000 0.000000 36.606986 -27.107595 94.197919 -2.035185 -0.001238 0.000000 8.390116 21.085503 26.180769 
-1.644901 -0.003980 3.801207 56.267501 -62.753463 93.056635 -2.454749 -0.000001 -0.000000 39.037810 -26.859645 94.301902 -2.035186 -0.001238 0.000000 11.261388 21.740287 26.013969 
-1.644901 -0.003980 3.801207 57.015424 -62.529999 93.166150 -2.454748 -0.000000 0.000000 40.683055 -26.119583 94.571182 -2.035185 -0.001238 0.000000 13.871022 22.092228 25.805197 
-1.644901 -0.003980 3.801207 58.100027 -63.083053 93.212855 -2.454748 0.000000 -0.000000 43.139577 -25.729852 94.196478 -2.035185 -0.001238 -0.000000 16.362058 22.591428 25.767730 
-1.644901 -0.003980 3.801207 59.080207 -63.740357 92.636169 -2.454748 0.000000 -0.000000 45.429538 -24.900261 93.750931 -2.035185 -0.001238 -0.000000 18.512461 23.202282 25.741427 
-1.644901 -0.003980 3.801207 59.963071 -64.300822 92.108769 -2.454749 -0.000001 0.000000 47.363786 -24.386639 92.960480 -2.035186 -0.001238 -0.000000 20.245838 23.733808 26.014859 
-1.644901 -0.003980 3.801207 60.487411 -64.572602 91.542751 -2.454748 -0.000000 0.000000 48.798420 -23.754918 92.408758 -2.035185 -0.001238 0.000000 21.456455 23.788084 25.433493 
-1.644901 -0.003980 3.801207 62.123528 -65.149473 91.923514 -2.454748 -0.000000 0.000000 50.299767 -23.824963 91.673488 -2.035185 -0.001238 0.000000 22.145367 24.115571 25.535314 
-1.644901 -0.003980 3.801207 63.192056 -65.690464 91.931061 -2.454748 -0.000001 -0.000000 51.458054 -23.698233 90.969602 -2.035186 -0.001238 -0.000000 22.514581 24.014383 25.420253 
-1.644901 -0.003980 3.801207 64.156561 -66.294226 91.858770 -2.454748 -0.000000 -0.000000 52.551534 -23.764489 90.325133 -2.035185 -0.001238 0.000000 23.215413 24.186979 25.561973 
-1.644901 -0.003980 3.801207 64.324167 -66.763760 91.148608 -2.454748 -0.000000 0.000000 53.080921 -24.065540 89.480894 -2.035185 -0.001238 -0.000000 23.639012 23.768524 25.350225 
-1.644901 -0.003980 3.801207 65.542919 -68.018903 91.259769 -2.454749 0.000000 0.000000 54.361943 -24.841313 88.663116 -2.035186 -0.001238 0.000000 24.250141 23.892763 25.013749 
-1.644901 -0.003980 3.801207 66.255321 -69.392980 90.866105 -2.454748 -0.000000 -0.000000 55.282872 -25.572904 87.956683 -2.035186 -0.001238 -0.000000 24.928234 23.296228 24.800033 
-1.644901 -0.003980 3.801207 66.665180 -69.775088 91.004921 -2.454748 -0.000000 -0.000000 55.947743 -25.477815 87.787035 -2.035185 -0.001238 -0.000000 24.401971 23.085300 24.990571 
-1.644901 -0.003980 3.801207 63.975131 -67.611763 89.515093 -2.454748 0.000000 -0.000000 54.441560 -24.113356 88.175912 -2.035185 -0.001238 0.000000 22.886116 22.375654 24.973779 
-1.644901 -0.003980 3.801207 62.874118 -68.222757 88.887010 -2.454748 -0.000000 0.000000 55.057595 -23.876311 88.033987 -2.035185 -0.001238 -0.000000 22.782892 21.906018 25.297100 
-1.644901 -0.003980 3.801207 61.818198 -67.724952 88.043932 -2.454748 0.000000 -0.000000 54.834210 -23.183773 88.417857 -2.035186 -0.001238 0.000000 21.539210 20.942926 25.552984 
-1.644901 -0.003980 3.801207 60.896505 -66.539607 87.558934 -2.454748 -0.000000 0.000000 54.332635 -22.392324 88.460362 -2.035185 -0.001238 -0.000000 21.660733 20.844262 26.337194 
-1.644901 -0.003980 3.801207 60.556027 -66.720218 87.650445 -2.454748 -0.000000 -0.000000 54.096744 -22.456161 88.473332 -2.035185 -0.001238 0.000000 21.748205 20.213999 26.837087 
-1.644901 -0.003980 3.801207 60.501126 -66.927931 87.390652 -2.454748 -0.000000 -0.000000 54.082415 -22.741366 88.238128 -2.035185 -0.001238 0.000000 22.056240 20.112667 27.490065 
-1.644901 -0.003980 3.801207 59.563778 -66.972778 86.805701 -2.454748 0.000000 -0.000000 53.831887 -23.125415 87.726116 -2.035186 -0.001238 0.000000 22.125578 19.445280 27.823047 
-1.644901 -0.003980 3.801207 59.725927 -67.607186 86.563864 -2.454749 -0.000000 -0.000000 54.533374 -23.549934 87.360210 -2.035185 -0.001238 -0.000000 22.256288 19.409200 28.088750 
-1.644901 -0.003980 3.801207 58.112260 -67.830581 85.344354 -2.454749 0.000000 0.000000 54.896792 -23.317011 86.765573 -2.035185 -0.001238 -0.000000 21.456382 18.978949 29.243609 
-1.644901 -0.003980 3.801207 58.743500 -68.203059 85.651064 -2.454749 -0.000000 -0.000000 55.259164 -23.376999 86.337730 -2.035186 -0.001238 0.000000 21.975493 19.233635 30.113099 
-1.644901 -0.003980 3.801207 58.725639 -69.113284 85.259257 -2.454748 -0.000000 -0.000000 55.825694 -23.630429 85.957897 -2.035185 -0.001238 -0.000000 21.844635 19.324036 31.407792 
-1.644901 -0.003980 3.801207 58.627537 -69.645240 83.988070 -2.454748 0.000000 -0.000000 56.651921 -24.052532 85.563446 -2.035185 -0.001238 -0.000000 21.639825 19.321248 31.963885 
-1.644901 -0.003980 3.801207 56.940698 -69.863000 81.324829 -2.454748 0.000000 -0.000000 57.916862 -25.069948 85.457032 -2.035185 -0.001238 0.000000 20.196291 18.805147 32.261702 
-1.644901 -0.003980 3.801207 57.031752 -70.591993 80.445524 -2.454749 0.000000 -0.000000 58.793742 -26.827595 84.966822 -2.035185 -0.001238 0.000000 19.122730 18.953118 31.310451 
-1.644901 -0.003980 3.801207 57.940775 -72.124844 80.385029 -2.454748 0.000000 -0.000000 59.544216 -29.278999 84.629391 -2.035185 -0.001238 -0.000000 18.246587 18.861118 29.056356 
-1.644901 -0.003980 3.801207 59.101647 -73.348589 80.687265 -2.454748 -0.000000 0.000000 59.992768 -30.706727 84.607835 -2.035185 -0.001238 0.000000 18.932101 19.176115 25.375838 
-1.644901 -0.003980 3.801207 58.627373 -73.795536 79.733081 -2.454748 -0.000000 -0.000000 60.873139 -31.959534 84.912119 -2.035186 -0.001238 0.000000 18.323497 18.864079 22.238901 
-1.644901 -0.003980 3.801207 58.367791 -73.657839 79.253656 -2.454749 0.000000 -0.000000 61.158982 -31.741399 85.300901 -2.035185 -0.001238 0.000000 17.912241 16.387386 15.030019 
-1.644901 -0.003980 3.801207 58.398452 -73.228541 79.571110 -2.454748 -0.000000 -0.000001 61.223500 -31.969766 85.726421 -2.035185 -0.001238 -0.000000 16.353628 13.688710 6.162738 
-1.644901 -0.003980 3.801207 58.890970 -73.659103 79.982710 -2.454748 0.000000 -0.000000 61.322258 -32.017598 85.684621 -2.035186 -0.001238 -0.000000 16.198384 9.125978 -5.402410 
